<?xml version="1.0" encoding="UTF-8"?>
<svg id="logo_rectangle" xmlns="http://www.w3.org/2000/svg" version="1.1" viewBox="0 0 128.5 31.33">
  <!-- Generator: Adobe Illustrator 29.8.1, SVG Export Plug-In . SVG Version: 2.1.1 Build 2)  -->
  <defs>
    <style>
      .st0 {
        fill: none;
      }
    </style>
  </defs>
  <rect class="st0" x=".09" y="-.01" width="128.42" height="31.31"/>
  <g>
    <path d="M25,20.77c0-.25.36-.59.61-1.12.35-.75.46-2.63.46-3.95,0-1.86-.25-3.69-.76-4.47-.12-.17-.16-.32-.16-.39,0-.62,2.29-.69,4.08-.69,1.66,0,4.24.5,4.24,2.58,0,1.08-.75,2.16-2.18,2.6,1.26.14,2.71,1,2.71,2.61,0,1.95-1.8,3.32-3.87,3.32-.65,0-1.34-.14-2.11-.14-.94,0-1.34.14-1.98.14-.68,0-1.05-.2-1.05-.48ZM29.35,15.04c1.4,0,1.99-.94,1.99-2.08s-.59-2.02-2.15-2.02c-.36,0-.76.03-1.2.1-.09,1.6-.14,3.14-.14,4h1.5ZM28.21,19.54c.27.71.91.85,1.62.85,1.12,0,1.96-.89,1.96-2.28,0-.66-.14-1.21-.49-1.6-.48-.53-1.15-.64-1.96-.64h-1.49c0,1.77.06,2.89.36,3.66Z"/>
    <path d="M36.6,20.58c0-.07.04-.2.16-.37.49-.78.73-2.71.73-4.63s-.23-3.68-.68-4.43c-.1-.17-.16-.3-.16-.38,0-.36.81-.61,1.76-.61s1.8.25,1.8.61c0,.07-.04.2-.16.38-.46.75-.69,2.61-.69,4.47s.25,3.81.74,4.59c.12.17.16.3.16.37,0,.36-.9.61-1.85.61s-1.82-.25-1.82-.61Z"/>
    <path d="M42.85,16c0-3.02,1.9-5.86,5.67-5.86.53,0,1.38.06,1.51.06.39,0,.59-.2.91-.2.27,0,.68.33.92,1.2.14.5.22,1.18.22,1.43,0,.19-.04.61-.35.61s-.5-.25-1.17-1.07c-.77-.94-1.37-1.21-2.28-1.21-2.15,0-3.33,1.64-3.33,4.03,0,2.73,1.33,4.28,3.66,4.28,1.21,0,2.02-.39,2.97-1.11.2-.16.35-.25.48-.25.17,0,.35.14.35.33,0,.1-.04.2-.1.32-.62,1.15-2.02,2.7-4.63,2.7-2.8,0-4.83-2.11-4.83-5.25Z"/>
    <path d="M58.44,21.12c-1.08,0-1.69.13-2.62.13-.68,0-1.11-.2-1.11-.51,0-.23.36-.56.6-1.1.35-.75.46-2.63.46-3.95s-.13-3.03-.46-3.76c-.25-.53-.6-.87-.6-1.1,0-.5,1.22-.69,1.98-.69.61,0,1.25.14,2.02.14,1.15,0,1.59-.35,2.09-.35.79,0,1.14,1.6,1.14,2.34,0,.32-.07.55-.29.55s-.48-.23-.97-.85c-.65-.79-1.28-.95-1.85-.95-.32,0-.69.03-1.14.09-.09.85-.14,1.63-.14,2.55,0,1.02.53,1.4,1.41,1.4.74,0,.98-.27,1.23-.92.16-.43.27-.56.46-.56.33,0,.52.39.52,1.9,0,1.24-.13,1.89-.53,1.89-.17,0-.26-.1-.43-.51-.27-.65-.5-1-1.21-1-.81,0-1.44.46-1.44,2.35,0,1.3.32,2.15,1.49,2.15.89,0,1.44-.52,2.14-1.51.32-.46.55-.72.76-.72.25,0,.32.32.32.71,0,.82-.32,2.52-1.12,2.52-.58,0-1.49-.25-2.68-.25ZM56.69,8.7l.43-.27c.84-.55,1.34-1.23,2.03-1.23.55,0,.85.37.85.76,0,.43-.2.69-.59.89-.33.16-1.72.48-2.44.48-.38,0-.58-.07-.58-.29,0-.17.17-.27.29-.35Z"/>
    <path d="M67.09,21.19c-.95,0-1.89-.25-1.89-.61,0-.07.04-.2.16-.37.52-.76.78-2.63.78-4.5s-.26-3.69-.78-4.47c-.12-.17-.16-.3-.16-.37,0-.65,2.32-.68,3.91-.68,2.02,0,4.44.61,4.44,2.77,0,2.03-1.95,3.02-3.88,3.02-.53,0-.82-.14-.82-.39,0-.3.27-.4.75-.45,1.34-.14,1.75-1.05,1.75-2.11,0-1-.45-1.99-1.5-1.99-.59,0-1,.23-1.25.65-.35.58-.52,2.02-.52,3.58,0,2.01.27,4.2.78,4.95.12.17.16.3.16.37,0,.36-.97.61-1.92.61Z"/>
    <path d="M75.46,20.58c0-.07.04-.2.16-.37.52-.78.78-2.67.78-4.54s-.26-3.75-.78-4.51c-.12-.17-.16-.3-.16-.38,0-.36.87-.61,1.79-.61s1.86.25,1.86.61c0,.07-.04.2-.16.38-.42.62-.65,1.44-.65,2.77,0,.84.32,1.3,1.28,1.3h2.02c.94,0,1.28-.46,1.28-1.3,0-1.24-.25-2.12-.68-2.77-.11-.17-.16-.3-.16-.38,0-.36.94-.61,1.86-.61s1.82.25,1.82.61c0,.07-.04.2-.16.38-.52.76-.78,2.65-.78,4.53s.26,3.75.78,4.53c.12.17.16.3.16.37,0,.36-.9.61-1.82.61s-1.86-.25-1.86-.61c0-.07.04-.2.16-.37.43-.65.68-1.5.68-2.89,0-.82-.35-1.28-1.28-1.28h-2.08c-.91,0-1.23.46-1.23,1.3,0,1.36.22,2.18.68,2.87.12.17.16.3.16.37,0,.36-.97.61-1.89.61s-1.79-.25-1.79-.61Z"/>
    <path d="M88,20.65c0-.07.01-.14.14-.26.87-.78,1.15-1.3,1.95-3.25l1.89-4.63c.17-.42.23-.75.23-.98,0-.48-.22-.69-.22-.91,0-.29.55-.49,1.38-.49,1,0,1.36.39,1.54.95.88,2.74,2.08,6.42,3.02,8.11.26.48.43.76.78,1.11.13.13.14.2.14.27,0,.36-.81.61-1.95.61-.97,0-2.11-.14-2.11-.58,0-.1.1-.19.2-.39.12-.23.22-.45.22-.94,0-1.46-.75-2.03-2.29-2.03s-2.44.56-2.44,1.92c0,.43.2.79.45,1.13.16.22.19.27.19.37,0,.33-.72.52-1.6.52-.77,0-1.53-.17-1.53-.53ZM92.96,16.53c1.2,0,1.47-.11,1.47-.43,0-.19-.26-1.12-.62-2.12-.23-.66-.53-1.37-.76-1.88l-1.12,2.89c-.27.72-.32.94-.32,1.1,0,.36.33.45,1.36.45Z"/>
    <path d="M104.74,21.1c-1.43,0-1.66.14-2.6.14-.68,0-1.11-.2-1.11-.51,0-.23.36-.56.61-1.1.35-.75.46-2.63.46-3.95,0-1.9-.26-3.82-.78-4.59-.12-.17-.16-.3-.16-.37,0-.4,1-.59,1.9-.59s1.9.19,1.9.59c0,.07-.04.2-.16.37-.53.79-.78,2.87-.78,4.79,0,1.21.07,2.37.25,3.1.22.91.5,1.31,1.27,1.31s1.23-.42,1.9-1.4c.32-.46.66-.92.91-.92.35,0,.48.56.48,1.47,0,1.11-.37,1.85-1.18,1.85-.72,0-1.5-.2-2.91-.2Z"/>
    <path d="M114.76,21.12c-1.08,0-1.69.13-2.62.13-.68,0-1.11-.2-1.11-.51,0-.23.36-.56.6-1.1.35-.75.46-2.63.46-3.95s-.13-3.03-.46-3.76c-.25-.53-.6-.87-.6-1.1,0-.5,1.22-.69,1.98-.69.61,0,1.25.14,2.02.14,1.15,0,1.59-.35,2.09-.35.79,0,1.14,1.6,1.14,2.34,0,.32-.07.55-.29.55s-.48-.23-.97-.85c-.65-.79-1.28-.95-1.85-.95-.32,0-.69.03-1.14.09-.09.85-.14,1.63-.14,2.55,0,1.02.53,1.4,1.41,1.4.74,0,.98-.27,1.23-.92.16-.43.27-.56.46-.56.33,0,.52.39.52,1.9,0,1.24-.13,1.89-.53,1.89-.17,0-.26-.1-.43-.51-.27-.65-.5-1-1.21-1-.81,0-1.44.46-1.44,2.35,0,1.3.32,2.15,1.49,2.15.89,0,1.44-.52,2.14-1.51.32-.46.55-.72.76-.72.25,0,.32.32.32.71,0,.82-.32,2.52-1.12,2.52-.58,0-1.49-.25-2.68-.25Z"/>
  </g>
  <g>
    <path d="M9.44,14.69c.34,0,.6.26.6.6,0,.32-.26.59-.6.59s-.6-.27-.6-.59c0-.34.26-.6.6-.6Z"/>
    <path d="M18.01,15.29c0,.32-.26.59-.6.59s-.6-.27-.6-.59c0-.34.26-.6.6-.6s.6.26.6.6Z"/>
    <path d="M15.54,15.29c0-.94,1.99-1.67,1.99-4.05s-1.85-4.09-4.11-4.09-4.11,1.83-4.11,4.09c0,2.38,1.99,3.11,1.99,4.05,0,1.37-1.82,3.29-1.82,3.7,0,.47.68.62.73,1.85-.21.06-.39.17-.39.39,0,.17.12.34.35.42v.03c-.22.04-.45.18-.45.44,0,.22.14.39.35.49,0,0,0,0,0,0,0,.13-.12.31-.12.52,0,.46.19.69.62.69.39,0,.68-.23,1.09-.23.77,0,.89.41,1.12.41.2,0,.3-.22.63-.34.33.12.43.34.63.34.23,0,.36-.41,1.12-.41.41,0,.7.23,1.09.23.43,0,.62-.23.62-.69,0-.21-.12-.39-.12-.52,0,0,0,0,0,0,.21-.1.35-.27.35-.49,0-.26-.24-.4-.46-.44v-.03c.23-.08.36-.25.36-.42,0-.22-.18-.33-.39-.39.05-1.23.73-1.38.73-1.85,0-.42-1.82-2.34-1.82-3.7ZM15.77,20.4c.19.05.35.16.35.36,0,.16-.11.31-.32.39v.03c.2.04.42.17.42.4,0,.2-.13.36-.32.45,0,0,0,0,0,0,0,.12.11.28.11.48,0,.42-.18.63-.57.63-.36,0-.63-.21-1-.21-.69,0-.81.36-1.01.38,0,0,0,0,.01,0h-.02s0,0,.01,0c-.21-.01-.33-.38-1.01-.38-.37,0-.64.21-1,.21-.39,0-.57-.21-.57-.63,0-.19.11-.36.11-.48,0,0,0,0,0,0-.19-.09-.32-.25-.32-.45,0-.24.22-.37.42-.4v-.03c-.21-.08-.33-.23-.33-.39,0-.2.16-.31.35-.36-.05-1.13-.67-1.27-.67-1.7,0-.38,1.67-2.14,1.67-3.39,0-.86-1.83-1.53-1.83-3.71,0-1.87,1.53-3.7,3.17-3.7s3.17,1.83,3.17,3.7c0,2.18-1.83,2.85-1.83,3.71,0,1.25,1.67,3.01,1.67,3.39,0,.43-.63.57-.67,1.7ZM16.63,18.99h0s0,0,0,0,0,0,0,0ZM16.95,18.71s0,0,0,0,0,0,0,0h0Z"/>
  </g>
</svg>